<?xml version="1.0" encoding="utf-8"?>
<!-- Generator: Adobe Illustrator 16.0.0, SVG Export Plug-In . SVG Version: 6.00 Build 0)  -->
<!DOCTYPE svg PUBLIC "-//W3C//DTD SVG 1.1//EN" "http://www.w3.org/Graphics/SVG/1.1/DTD/svg11.dtd">
<svg version="1.1" id="Layer_1" xmlns="http://www.w3.org/2000/svg" xmlns:xlink="http://www.w3.org/1999/xlink" x="0px" y="0px"
	 width="100px" height="30px" viewBox="0 0 100 30" enable-background="new 0 0 100 30" xml:space="preserve">
<g>
	<path fill="#5D5E5F" d="M48.058,0.935h-3.995v10.511c-0.584-1.406-3.364-2.426-5.208-2.426c-3.134,0-6.178,3.48-6.178,10.231
		c0,5.693,2.648,9.666,6.274,9.666c2.028,0,4.497-1.238,5.111-2.82v2.807l4.148,0.014c-0.092-1.547-0.153-3.727-0.153-5.309V0.935z
		 M44.062,21.728c0,1.688-1.776,4.346-3.897,4.346c-2.182,0-4.034-3.01-4.034-7.018c0-3.866,1.663-6.944,3.999-6.944
		c1.506,0,3.563,1.566,3.871,3.289c0.062,0.456,0.062,0.949,0.062,1.37V21.728z"/>
	<path fill="#5D5E5F" d="M60.319,12.043c1.353,0,3.308,1.146,3.984,1.533l1.807-2.405c-0.146-0.096-1.264-1.094-2.615-1.625
		c-1.256-0.494-2.744-0.526-3.113-0.526c-4.894,0-8.143,4.058-8.291,9.815h-0.007c0,0.07,0,0.139,0.002,0.207
		c-0.002,0.07-0.002,0.139-0.002,0.209l0.007-0.002c0.148,5.758,3.397,9.816,8.291,9.816c0.369,0,1.857-0.033,3.113-0.527
		c1.352-0.529,2.47-1.527,2.615-1.625l-1.807-2.404c-0.677,0.387-2.632,1.533-3.984,1.533c-3.156,0-4.78-3.182-4.789-7
		C55.539,15.225,57.163,12.043,60.319,12.043z"/>
	<rect x="24.309" y="9.063" fill="#5D5E5F" width="4.027" height="19.991"/>
	<rect x="70.258" y="9.063" fill="#5D5E5F" width="4.027" height="19.991"/>
	<path fill="#5D5E5F" d="M26.36,5.286c1.161,0,2.103-0.941,2.103-2.103h-4.206C24.257,4.345,25.198,5.286,26.36,5.286z"/>
	<path fill="#5D5E5F" d="M72.275,5.286c1.161,0,2.104-0.941,2.104-2.103h-4.207C70.172,4.345,71.114,5.286,72.275,5.286z"/>
	<polygon fill="#07AFD0" points="16.398,14.69 16.412,10.247 0.894,16.879 5.962,19.058 	"/>
	<polygon fill="#1D9748" points="0.894,16.879 0.88,21.114 16.412,28.165 16.412,23.354 5.962,19.058 	"/>
	<polygon fill="#07AFD0" points="83.602,14.543 83.588,10.099 99.106,16.731 94.038,18.911 	"/>
	<polygon fill="#1D9748" points="99.106,16.731 99.12,20.968 83.588,28.017 83.588,23.206 94.038,18.911 	"/>
</g>
</svg>
